<svg id="Layer_1" data-name="Layer 1" xmlns="http://www.w3.org/2000/svg" viewBox="0 0 1957.392 271.66"><title>sugarcoma</title><path d="M68.278,126.193a15.994,15.994,0,0,0-5.968,13q0,8.095,7.294,12.865t33.687,11.273q26.391,6.5,40.981,19.5t14.589,37.932q0,24.935-18.7,40.45t-49.2,15.518q-44.034,0-79.311-32.626l24.668-30.238q29.971,26.259,55.438,26.26,11.4,0,17.9-4.907a15.753,15.753,0,0,0,6.5-13.263,15.463,15.463,0,0,0-6.9-13.263q-6.9-4.9-27.321-9.947-32.365-7.689-47.348-20.026T19.6,139.986q0-26.391,18.966-40.716T85.917,84.947a113.924,113.924,0,0,1,37.135,6.365,99.525,99.525,0,0,1,32.361,18.037l-20.955,30.239q-24.14-18.3-49.867-18.3Q74.246,121.286,68.278,126.193Z" transform="translate(-11.646 -5.064)" fill="#93cdd1"/><path d="M243.206,226.724q10.345,12.869,27.852,12.865t27.719-12.865q10.21-12.863,10.213-35.146V89.191h41.379V192.9q0,40.323-22.281,61.937t-57.029,21.617q-34.752,0-57.16-21.75t-22.415-61.8V89.191h41.379V191.578Q232.863,213.858,243.206,226.724Z" transform="translate(-11.646 -5.064)" fill="#93cdd1"/><path d="M513.761,180.172h41.645v65.782q-27.59,30.773-76.393,30.77-40.85,0-68.567-27.056t-27.719-68.3q0-41.243,28.25-68.833t68.169-27.586q39.918,0,69.363,26.26l-21.485,31.034q-12.47-10.874-22.944-14.986a61.569,61.569,0,0,0-22.679-4.111q-23.612,0-39.788,16.047T425.433,181.5q0,26.26,15.517,42.043t37,15.782q21.485,0,35.809-8.223V180.172Z" transform="translate(-11.646 -5.064)" fill="#93cdd1"/><path d="M722.779,274.6l-17.241-40.053H627.821L610.578,274.6H566.547l80.105-185.41h40.054L766.812,274.6H722.779ZM666.812,144.363L643.47,198.209h46.419Z" transform="translate(-11.646 -5.064)" fill="#93cdd1"/><path d="M938.693,150.729q0,44.562-35.278,57.56L950.363,274.6H899.436L858.321,215.45H829.674V274.6H788.3V89.191h70.292q43.232,0,61.671,14.588T938.693,150.729Zm-49.867,22.016q7.69-6.9,7.692-21.883T888.56,130.3q-7.957-5.569-27.851-5.57H829.674v54.907h30.239Q881.132,179.642,888.825,172.745Z" transform="translate(-11.646 -5.064)" fill="#93cdd1"/><path d="M1066.276,238q30.5,0,49.867-24.138l26.525,27.32q-31.569,35.549-74.4,35.544t-70.557-27.056q-27.721-27.056-27.719-68.3t28.249-68.833q28.25-27.584,69.1-27.586,45.618,0,76.392,34.748L1118,148.872q-19.633-24.4-48.807-24.4-23.344,0-39.92,15.252T1012.7,180.835q0,25.862,15.649,41.512A51.641,51.641,0,0,0,1066.276,238Z" transform="translate(-11.646 -5.064)" fill="#e94444"/><path d="M1327.282,249q-28.119,27.454-69.23,27.453T1188.821,249q-28.119-27.454-28.117-68.3t28.117-68.3q28.112-27.454,69.23-27.453t69.23,27.453q28.112,27.454,28.116,68.3T1327.282,249Zm-14.059-68.17q0-24.8-15.915-42.308t-39.124-17.506q-23.213,0-39.125,17.506t-15.915,42.308q0,24.806,15.915,42.175t39.125,17.374q23.208,0,39.124-17.374T1313.224,180.835Z" transform="translate(-11.646 -5.064)" fill="#e94444"/><path d="M1556.455,157.891l-50.132,101.326h-24.669l-49.867-101.326V274.6h-41.379V89.191h55.968l47.745,101.856,48.011-101.856h55.7V274.6h-41.38V157.891Z" transform="translate(-11.646 -5.064)" fill="#e94444"/><path d="M1775.552,274.6l-17.241-40.053h-77.718L1663.351,274.6H1619.32l80.105-185.41h40.054l80.105,185.41h-44.032Zm-55.968-130.238-23.342,53.846h46.419Z" transform="translate(-11.646 -5.064)" fill="#e94444"/><path d="M1963.511,84.029h-151.73s-4.2,1.981-1.752,5.835,70.434,70.434,70.434,70.434v93.211l-33.99,15.947s-2.8,3.151,0,3.151h81.472s2.717-.434,0-3.151-35.392-15.947-35.392-15.947V161l70.959-71.31S1969.293,84.029,1963.511,84.029Z" transform="translate(-11.646 -5.064)" fill="#e94444" stroke="#e94444" stroke-miterlimit="10" stroke-width="5.915"/><path d="M1832.923,97.574l49.292,49.759h9.111l50.46-50.81h-26.632l-15.4,19.928,3.132-20.628-71.8-.062S1832.439,97.046,1832.923,97.574Z" transform="translate(-11.646 -5.064)" fill="#fff" stroke="#e84444" stroke-miterlimit="10" stroke-width="2.803"/><polygon points="1777.084 9.243 1846.405 91.108 1856.308 85.166 1786.327 0 1777.084 9.243" fill="#e94444"/><circle cx="1814.502" cy="46.255" r="21.025" fill="#e94444"/></svg>